<svg width="35" height="42" viewBox="0 0 35 42" xmlns="http://www.w3.org/2000/svg">
<path fill-rule="evenodd" clip-rule="evenodd" d="M34.9996 0H0V34.8949L17.5002 42L35 34.8949L34.9996 0ZM32.0467 32.954L17.5002 38.8508L2.95376 32.954V2.90724H32.0467V32.954Z" fill="current"/>
<path fill-rule="evenodd" clip-rule="evenodd" d="M29.0921 31.0065V18.811L23.3343 21.1491V27.2097L20.3801 28.4092V18.6031H21.8562L26.1379 16.8651V12.9356H20.3801V11.4811L23.1845 9.74652V5.8149H11.8159V9.74316L14.6224 11.4811V12.9356H8.86425V16.8672L13.146 18.6031H14.6224V28.4092L11.6661 27.2097V21.1491L5.90836 18.8105V31.0073L17.5002 35.7105L29.0921 31.0065Z" fill="current"/>
</svg>