<?xml version="1.0" encoding="utf-8"?>
<!-- Generator: Adobe Illustrator 26.0.3, SVG Export Plug-In . SVG Version: 6.00 Build 0)  -->
<svg version="1.0" id="katman_1" xmlns="http://www.w3.org/2000/svg" xmlns:xlink="http://www.w3.org/1999/xlink" x="0px" y="0px"
	 viewBox="0 0 800 600" style="enable-background:new 0 0 800 600;" xml:space="preserve">
<path class="st0" d="M339.4,196l60.4,34.9l60.4-34.9V81l-26.6-15.3H366L339.4,81V196z M399.8,240.4l-68.6-39.6V76.2l32.6-18.8h72
	l32.6,18.8v124.5L399.8,240.4z M452,191.2v-58.5l-24.3,14.1v29.3l-14.7,8.5V132h5.5l21.4-12.3v-13H413v-8.1l12.7-10.8V73.9h-51.8
	v13.8l12.7,10.8v8.1h-26.9v13l21.4,12.3h5.5v52.6l-14.7-8.5v-29.3l-24.3-14.1v58.5l52.2,30.1L452,191.2z M423.7,241.9
	c0-1-0.8-1.9-1.9-1.9l-7.6,0v22.7h7.6c1,0,1.9-0.8,1.9-1.9C423.7,260.8,423.7,244.8,423.7,241.9L423.7,241.9z M443.3,312.9h-19.1
	l-5.9-36.1h-4.1v36.1h-18.9v-70.1l4.4,2.6l31.3-18.1c5.3,2.3,11.4,7.6,11.4,15.6c0,3.4,0,17,0,17c0,5.3-2.7,9.3-6,12.2L443.3,312.9z
	 M368.8,322.5H150.5v19.3h218.3V322.5z M500.3,351.5v140.2l21.2-4.4V351.5H500.3z M287.4,312.9l4.4-41.3l4.4,41.3h25.5l9.3-87h-19
	l-5.8,53.9l-5.8-53.9h-17.4l-5.8,53.9l-5.8-53.9h-19l9.3,87H287.4z M436.5,351.5v153.6l21.2-4.4v-76h11.8v73.5l21.2-4.4V351.5h-21.2
	v56.2h-11.8v-56.2H436.5z M268.6,424.7h8.4l-4.2-38.9L268.6,424.7z M254.8,351.5h35.1l15.2,141.3l-21.2-4.4l-5.1-46.7h-12l-4.5,42.2
	l-21.2-4.4L254.8,351.5z M150.5,470.3v19.3l249.3,52.1l249.3-52.1v-19.3l-249.3,52.1L150.5,470.3z M420.7,325.7v-8H403v29h8.6v-10.4
	h9.1v-8h-9.1v-2.7H420.7z M330.1,407.6h8c2.1,0,3.8-1.7,3.8-3.8v-32.7c0-2.1-1.7-3.8-3.8-3.8h-8V407.6z M335.7,424.7h-5.6l0,73.3
	l-21.2-4.4V351.5l37.5,0c9.2,0,16.7,7.5,16.7,16.7c0,4.4,0,38.3,0,38.3c0,5.8-2.7,10.2-7.1,13.2l9.2,85.6l-21.3-4.5L335.7,424.7z
	 M552.3,407.6h8c2.1,0,3.8-1.7,3.8-3.8l0-32.7c0-2.1-1.7-3.9-3.9-3.9l-7.9,0V407.6z M552.3,480.9l-21.2,4.5l0-133.8h32.5
	c12,0,21.7,9.7,21.7,21.7l0,29.7c0,12-9.7,21.7-21.7,21.7h-11.3V480.9z M452.2,225.9v87h38.1v-16.1h-19.1v-70.9H452.2z M430.3,322.5
	v19.3h218.8v-19.3H430.3z M518.8,298.8l7.6,0c1,0,1.9-0.8,1.9-1.9c0-9,0-48.1,0-55.1c0-1-0.8-1.9-1.9-1.9h-7.6V298.8z M499.9,312.9
	v-87c0,0,16.9,0,30.4,0c9.3,0,16.8,7.5,16.8,16.8v53.3c0,9.3-7.5,16.8-16.8,16.8H499.9z M386.9,325.7v13c0,0.5,0.3,0.9,0.8,0.9
	l1.3,0c0.5,0,0.8-0.3,0.8-0.8v-13c0-0.5-0.3-0.8-0.8-0.8h-1.3C387.3,324.9,386.9,325.2,386.9,325.7z M385.8,317.7h5.1
	c2.2,0,7.4,2.5,7.4,7.4v14.2c0,4.9-5.1,7.4-7.4,7.4h-5.1c-2.2,0-7.4-2.5-7.4-7.4v-14.2C378.5,320.3,383.6,317.7,385.8,317.7z
	 M193,469.4l4.9-44.7l5.1,46.8l28.6,6l13.5-125.9H224l-7.4,67.8l-7.4-67.8h-22.7l-7.4,67.8l-7.4-67.8h-21.2l12,111.5L193,469.4z
	 M627.9,351.5l-11.3,0c-12,0-21.6,7.7-21.6,21.7v14.4c0,3.9,2.2,7,4.8,8.7l23.6,16c2.8,1.8,4.6,2.8,4.6,8.2c0,8.6,0,16.7,0,25.3
	c0,3.4-3.2,3.7-6.7,4.5c-4.2,0.9-5.1-0.6-5.1-3.8c0-8.9,0-26.3,0-26.3l-21.1,4.4v27c0,10.4,9.6,18.3,19.7,16.2
	c4.1-0.9,8.2-1.7,12.3-2.6c10.3-2.2,22.1-8.2,22.1-19.9c0-10.4,0-20.5,0-30.9c0-7.5-0.7-8.3-6.4-12.3l-24.9-16.5
	c-1.6-1-1.6-2.9-1.6-4.9l0-9.6c0-2.1,1.6-3.9,3.2-3.9l5.4,0c1.8,0,3.2,1.6,3.2,3.6l0,9.9l21.2-4.3v-6
	C649.1,360.9,641.5,351.5,627.9,351.5L627.9,351.5z M366.8,241.9c0-1-0.8-1.9-1.9-1.9l-5.7,0c-1,0-1.8,0.8-1.8,1.9
	c0,8.5,0,46.2,0,55.1c0,1,0.8,1.9,1.9,1.9h5.7c1,0,1.9-0.8,1.9-1.9C366.8,288.1,366.8,250.4,366.8,241.9z M385.7,242.8l0,53.2
	c0,9.3-7.5,16.9-16.8,16.8l-13.7,0c-9.3,0-16.8-7.5-16.8-16.8v-53.3c0-9.3,7.5-16.8,16.8-16.8l10.9,0l18.1,10.5
	C385.2,238.3,385.7,240.4,385.7,242.8L385.7,242.8z M393.9,371.1l0,9.7c0,2,0.1,4,1.6,4.9l24.9,16.5c5.8,4,6.4,4.8,6.4,12.3
	c0,17.5,0,55.2,0,78.1c0,10.5-8.5,19-19,19h-16.2c-10.5,0-19-8.5-19-19.1c0-8.1,0-67.9,0-67.9l21.2-4.4c0,20,0,59.4,0,71.8
	c0,2.1,1.7,3.8,3.8,3.8h4.2c2.1,0,3.8-1.7,3.8-3.8c0-12.3,0-51.5,0-71.5c0-5.5-1.8-6.4-4.6-8.2l-23.6-16c-2.6-1.7-4.8-4.8-4.8-8.7
	v-19.4c0-10.5,8.5-16.8,18.9-16.8c12.2,0,2.5,0,18,0c9.5,0,17.2,7.7,17.2,17.3v7.7l-21.2,4.3l0-9.6c0-2.1-1.7-3.9-3.8-3.9h-4.2
	C395.6,367.3,393.9,369,393.9,371.1"/>
</svg>
